<svg xmlns="http://www.w3.org/2000/svg" viewBox="0 0 800 400">
  <defs>
    <marker id="arrow" markerWidth="10" markerHeight="10" refX="0" refY="3" orient="auto">
      <path d="M0 0 L6 3 L0 6 z" fill="#6366F1"/>
    </marker>
    <linearGradient id="grad1" x1="0%" y1="0%" x2="100%" y2="0%">
      <stop offset="0%" style="stop-color:rgb(99,102,241);stop-opacity:1" />
      <stop offset="100%" style="stop-color:rgb(79,70,229);stop-opacity:1" />
    </linearGradient>
  </defs>
  <rect width="800" height="400" fill="#f8f9fa" rx="20"/>
  
  <!-- Streamlit UI Box -->
  <g transform="translate(50,50)">
    <rect width="150" height="60" fill="url(#grad1)" rx="10"/>
    <text x="75" y="35" fill="white" text-anchor="middle" font-family="Arial">Streamlit UI</text>
  </g>
  
  <!-- Gemini AI Box -->
  <g transform="translate(300,50)">
    <rect width="150" height="60" fill="url(#grad1)" rx="10"/>
    <text x="75" y="35" fill="white" text-anchor="middle" font-family="Arial">Gemini AI</text>
  </g>
  
  <!-- YouTube API Box -->
  <g transform="translate(550,50)">
    <rect width="150" height="60" fill="url(#grad1)" rx="10"/>
    <text x="75" y="35" fill="white" text-anchor="middle" font-family="Arial">YouTube API</text>
  </g>
  
  <!-- Arrows -->
  <path d="M200,80 L300,80" stroke="#6366F1" stroke-width="2" marker-end="url(#arrow)"/>
  <path d="M450,80 L550,80" stroke="#6366F1" stroke-width="2" marker-end="url(#arrow)"/>
  
  <!-- Graph -->
  <g transform="translate(50,150)">
    <rect width="200" height="100" fill="white" stroke="#6366F1" stroke-width="2" rx="10"/>
    <text x="100" y="25" fill="#6366F1" text-anchor="middle" font-family="Arial" font-size="14">User Engagement</text>
    <circle cx="50" cy="70" r="5" fill="#4F46E5"/>
    <circle cx="100" cy="50" r="5" fill="#4F46E5"/>
    <circle cx="150" cy="90" r="5" fill="#4F46E5"/>
    <circle cx="200" cy="60" r="5" fill="#4F46E5"/>
    <path d="M50,70 L100,50 L150,90 L200,60" stroke="#4F46E5" stroke-width="2"/>
  </g>
  
  <!-- Blob -->
  <g transform="translate(300,150)">
    <path d="M100,40 Q140,60 100,80 Q60,100 60,60 Q60,20 100,40" fill="#4F46E5" stroke="#6366F1" stroke-width="2"/>
    <text x="100" y="60" fill="white" text-anchor="middle" font-family="Arial" font-size="14">AI Analysis</text>
  </g>
</svg>
